<svg width="180" height="62" viewBox="0 0 180 62" fill="none" xmlns="http://www.w3.org/2000/svg">
<path fill-rule="evenodd" clip-rule="evenodd" d="M52.3936 14.4225C48.2213 14.4225 44.0487 14.4225 39.8764 14.4225C39.9364 15.2944 39.7425 16.0706 39.2942 16.7513C39.2136 15.8933 39.3105 15.0685 39.5853 14.277C43.9049 14.0361 48.1744 14.0846 52.3936 14.4225Z" fill="#B5EAB7"/>
<path fill-rule="evenodd" clip-rule="evenodd" d="M3.1981 16.7513C3.48681 16.0774 3.97198 15.5922 4.65358 15.2958C5.98233 14.8976 7.34077 14.6065 8.72895 14.4225C9.09027 14.5789 9.42989 14.7729 9.7478 15.0047C10.3588 14.7757 10.9895 14.6787 11.6399 14.7136C12.0507 16.1079 11.4685 16.7872 9.89335 16.7513C9.89335 17.0424 9.89335 17.3335 9.89335 17.6246C8.99711 17.5547 8.12382 17.6518 7.27347 17.9157C6.98237 18.4979 6.69127 19.0801 6.40017 19.6622C5.96612 19.4154 5.77204 19.0272 5.81798 18.4979C5.96268 17.823 6.05973 17.1438 6.10907 16.4602C5.80284 16.4167 5.51174 16.4652 5.23578 16.6057C5.37338 17.6976 5.42191 18.8134 5.38133 19.9533C5.92947 20.2889 6.17204 20.774 6.10907 21.4088C5.76703 21.4726 5.47594 21.3756 5.23578 21.1177C4.8991 20.4837 4.51098 19.9015 4.07139 19.3711C3.92293 20.8564 3.77738 22.409 3.63474 24.0287C3.53772 22.6702 3.44067 21.3118 3.34364 19.9533C3.29165 20.8422 3.14611 21.7155 2.907 22.5732C2.80997 21.9425 2.71292 21.3118 2.6159 20.6811C2.6584 19.3435 2.85245 18.0336 3.1981 16.7513Z" fill="#36CF3C"/>
<path fill-rule="evenodd" clip-rule="evenodd" d="M52.3936 14.4225C54.7303 14.4308 56.3799 15.4982 57.3423 17.6246C57.3423 18.0127 57.3423 18.4008 57.3423 18.789C57.3423 21.2148 57.3423 23.6406 57.3423 26.0664C56.9575 26.1159 56.6178 26.0188 56.3235 25.7753C55.9491 23.9193 55.658 24.0164 55.4502 26.0664C55.3282 25.7252 55.1343 25.4341 54.868 25.1931C54.771 23.7376 54.6738 22.2821 54.5769 20.8266C54.4799 23.5435 54.3827 26.2605 54.2858 28.9774C54.2337 27.9512 54.0881 26.9809 53.8491 26.0664C53.9431 24.1678 53.8462 22.3242 53.558 20.5355C53.5804 19.6596 53.1924 19.0288 52.3936 18.6434C51.2333 18.4982 50.0689 18.4497 48.9005 18.4979C48.7209 18.5301 48.5753 18.6271 48.4638 18.789C48.3669 22.4762 48.2696 26.1634 48.1727 29.8507C47.7599 29.1226 47.4688 29.2197 47.2994 30.1418C47.215 29.6923 47.0211 29.3042 46.7172 28.9774C46.2829 30.6177 45.8949 32.2674 45.5528 33.926C45.3252 30.4749 44.9855 27.0787 44.534 23.7376C44.5823 20.922 44.534 18.108 44.3884 15.2958C44.1943 14.9077 44.0004 14.9077 43.8062 15.2958C43.6656 15.5717 43.6173 15.8628 43.6607 16.1691C43.6607 16.3631 43.6607 16.5572 43.6607 16.7513C42.512 19.7535 41.5418 22.8585 40.7497 26.0664C40.2383 26.2969 39.8499 26.6851 39.5853 27.2308C39.0957 25.8577 38.6104 24.4992 38.1298 23.1554C38.7973 21.0681 39.1856 18.9334 39.2942 16.7513C39.7425 16.0706 39.9364 15.2944 39.8764 14.4225C44.0487 14.4225 48.2213 14.4225 52.3936 14.4225Z" fill="#36CC3D"/>
<path fill-rule="evenodd" clip-rule="evenodd" d="M71.315 14.4225C71.315 15.6839 71.315 16.9453 71.315 18.2068C68.7391 18.1117 66.2161 18.2088 63.7464 18.4979C63.5523 18.4979 63.3584 18.4979 63.1642 18.4979C62.7879 18.1072 62.5454 17.622 62.4365 17.0424C62.3396 17.1394 62.2423 17.2364 62.1454 17.3335C62.0001 18.6885 61.9515 20.0469 61.9999 21.4088C61.7088 21.4088 61.4177 21.4088 61.1266 21.4088C61.1903 21.0668 61.0934 20.7757 60.8355 20.5355C60.4241 21.0794 60.0844 21.6616 59.8166 22.2821C59.7657 20.9665 59.6201 19.7051 59.38 18.4979C59.38 17.1394 59.38 15.781 59.38 14.4225C63.3584 14.4225 67.3366 14.4225 71.315 14.4225Z" fill="#39D43F"/>
<path fill-rule="evenodd" clip-rule="evenodd" d="M71.315 14.4225C71.602 15.7237 71.6989 17.0822 71.6061 18.4979C68.9862 18.4979 66.3663 18.4979 63.7464 18.4979C66.2161 18.2088 68.7391 18.1117 71.315 18.2068C71.315 16.9453 71.315 15.6839 71.315 14.4225Z" fill="#94ED98"/>
<path fill-rule="evenodd" clip-rule="evenodd" d="M33.7634 16.7513C33.7284 17.7823 33.8257 18.8011 34.0545 19.8078C34.0431 20.3591 33.8489 20.6502 33.4723 20.6811C34.6899 21.891 35.2721 23.395 35.2189 25.1931C35.1921 27.1333 34.901 27.2788 34.3456 25.6298C34.6416 24.8186 34.6902 23.9938 34.4911 23.1554C34.1875 23.9923 33.8478 24.8171 33.4723 25.6298C33.777 26.089 33.777 26.5257 33.4723 26.9397C33.2144 26.6995 33.1174 26.4084 33.1812 26.0664C32.8901 26.0664 32.599 26.0664 32.3079 26.0664C32.2168 25.2668 32.3137 24.4905 32.599 23.7376C32.8598 24.0305 33.0537 24.0305 33.1812 23.7376C32.6883 23.5256 32.2517 23.2345 31.8712 22.8643C31.7743 23.0584 31.6771 23.2524 31.5801 23.4465C31.4704 23.0267 31.2279 22.7356 30.8524 22.5732C30.9522 21.9959 30.7581 21.6078 30.2702 21.4088C29.9273 19.4546 29.4906 17.5139 28.9603 15.5869C28.8488 15.425 28.7032 15.328 28.5236 15.2958C28.5236 15.0047 28.5236 14.7136 28.5236 14.4225C30.1733 14.4225 31.8226 14.4225 33.4723 14.4225C33.5692 15.1988 33.6664 15.975 33.7634 16.7513Z" fill="#37CD3D"/>
<path fill-rule="evenodd" clip-rule="evenodd" d="M25.0304 14.7136C26.1182 14.8385 27.0886 15.2266 27.9414 15.878C28.6307 17.0636 29.1643 18.3251 29.5425 19.6623C29.7523 22.3871 29.7037 25.1041 29.3969 27.813C29.2027 28.1041 29.0089 28.3952 28.8147 28.6863C28.415 28.6407 28.0268 28.6892 27.6503 28.8319C28.0422 29.3099 27.9452 29.504 27.3592 29.4141C27.0465 29.199 26.8524 28.9079 26.777 28.5408C27.0185 28.1143 27.067 27.6776 26.9226 27.2308C26.5466 27.7399 26.207 28.2735 25.9037 28.8319C25.4358 28.8264 24.9506 28.7779 24.4482 28.6863C24.4369 28.1452 24.6794 27.7571 25.176 27.5219C25.4157 24.9477 25.3672 22.4248 25.0304 19.9534C24.8012 19.0449 24.219 18.5597 23.2838 18.4979C22.4726 18.2136 21.5993 18.1166 20.664 18.2068C20.664 21.4089 20.664 24.6109 20.664 27.813C19.7615 25.427 19.1793 25.5241 18.9174 28.1041C18.668 27.7444 18.4739 27.3563 18.3352 26.9397C18.095 26.6819 17.8039 26.5849 17.4619 26.6486C17.5103 24.3178 17.4618 21.9891 17.3163 19.6623C17.2193 20.8267 17.1223 21.9911 17.0252 23.1555C16.9641 22.7019 16.8186 22.3138 16.5886 21.9911C16.5886 19.5653 16.5886 17.1394 16.5886 14.7136C19.4026 14.7136 22.2165 14.7136 25.0304 14.7136Z" fill="#34C93A"/>
<path fill-rule="evenodd" clip-rule="evenodd" d="M23.2838 18.4979C22.5076 18.4979 21.7313 18.4979 20.9551 18.4979C20.9551 21.603 20.9551 24.708 20.9551 27.813C20.858 27.813 20.761 27.813 20.664 27.813C20.664 24.611 20.664 21.4089 20.664 18.2068C21.5993 18.1166 22.4726 18.2136 23.2838 18.4979Z" fill="#83DA85"/>
<path fill-rule="evenodd" clip-rule="evenodd" d="M11.0577 19.9534C11.3396 20.5668 11.4366 21.246 11.3488 21.9911C12.7073 21.9911 14.0657 21.9911 15.4242 21.9911C14.0254 22.2784 12.5699 22.3754 11.0577 22.2822C11.0577 21.5059 11.0577 20.7296 11.0577 19.9534Z" fill="#AFF3B1"/>
<path fill-rule="evenodd" clip-rule="evenodd" d="M81.2123 14.7136C83.6357 14.8552 85.1398 16.1166 85.7243 18.4979C85.9185 20.8267 85.9185 23.1555 85.7243 25.4842C85.3724 26.5833 84.7416 27.4566 83.8322 28.1041C82.8396 28.1379 82.4512 27.6528 82.6678 26.6486C82.2798 26.6486 81.8914 26.6486 81.5034 26.6486C81.5034 26.1635 81.5034 25.6783 81.5034 25.1931C81.5517 23.4439 81.5031 21.6973 81.3579 19.9534C81.1657 19.4225 80.826 19.0344 80.339 18.789C80.339 18.692 80.339 18.5949 80.339 18.4979C79.6203 18.26 78.8442 18.1145 78.0102 18.0612C78.4641 17.776 78.9493 17.5334 79.4657 17.3335C79.3202 17.2365 79.1746 17.1394 79.0291 17.0424C78.1648 17.3023 77.3885 17.6904 76.7003 18.2068C76.6514 21.4133 76.5058 24.6153 76.2637 27.813C75.9915 25.7148 75.5548 25.6178 74.9537 27.5219C74.6256 26.6844 74.4315 25.8111 74.3715 24.902C74.2501 25.7526 73.959 26.5289 73.4982 27.2308C73.2045 25.1587 72.962 23.121 72.7705 21.1178C72.7705 18.9831 72.7705 16.8483 72.7705 14.7136C75.5845 14.7136 78.3983 14.7136 81.2123 14.7136Z" fill="#38D13F"/>
<path fill-rule="evenodd" clip-rule="evenodd" d="M80.339 18.4979C80.339 18.5949 80.339 18.692 80.339 18.789C79.2716 18.789 78.2044 18.789 77.137 18.789C77.137 21.5059 77.137 24.2229 77.137 26.9398C76.8476 24.1785 76.7507 21.3646 76.8459 18.4979C78.0103 18.4979 79.1746 18.4979 80.339 18.4979Z" fill="#B3EFB5"/>
<path fill-rule="evenodd" clip-rule="evenodd" d="M80.339 18.7889C80.826 19.0343 81.1657 19.4225 81.3579 19.9533C81.5031 21.6972 81.5517 23.4438 81.5034 25.1931C81.3092 25.4842 81.1154 25.7753 80.9212 26.0664C81.472 23.5491 81.2778 21.1233 80.339 18.7889Z" fill="#9FE69E"/>
<path fill-rule="evenodd" clip-rule="evenodd" d="M63.1642 18.4978C63.2126 21.0226 63.1642 23.5454 63.0187 26.0664C62.9287 26.4349 62.7832 26.7745 62.5821 27.0852C62.9814 27.2022 63.3695 27.3477 63.7464 27.5219C65.5259 26.9685 67.3697 26.7744 69.2773 26.9397C69.2773 27.91 69.2773 28.8803 69.2773 29.8507C67.3342 29.8023 65.3935 29.8508 63.4553 29.9962C63.056 30.1131 62.6679 30.2587 62.291 30.4329C61.5449 29.6257 60.6716 29.0435 59.6711 28.6863C59.759 27.9413 59.6618 27.262 59.38 26.6486C59.38 23.9317 59.38 21.2148 59.38 18.4978C59.6201 19.7051 59.7657 20.9665 59.8166 22.2821C60.0844 21.6616 60.4241 21.0794 60.8355 20.5355C61.0934 20.7757 61.1903 21.0668 61.1266 21.4088C61.4177 21.4088 61.7088 21.4088 61.9999 21.4088C61.9515 20.0469 62.0001 18.6885 62.1454 17.3335C62.2423 17.2364 62.3396 17.1394 62.4365 17.0424C62.5454 17.622 62.7879 18.1072 63.1642 18.4978Z" fill="#2FC636"/>
<path fill-rule="evenodd" clip-rule="evenodd" d="M15.4242 21.991C14.0657 21.991 12.7073 21.991 11.3488 21.991C11.4366 21.246 11.3396 20.5668 11.0577 19.9534C11.0717 19.1406 10.6836 18.6069 9.89334 18.3523C9.21412 18.1582 8.53487 18.1582 7.85565 18.3523C7.51603 18.4979 7.27346 18.7404 7.12791 19.0801C6.93383 20.2445 6.93383 21.4089 7.12791 22.5732C7.69922 23.8159 8.32994 24.9803 9.02004 26.0664C9.93505 26.2029 10.6143 26.6881 11.0577 27.5219C11.1798 27.9858 11.3739 28.4224 11.6399 28.8318C11.3732 29.6518 10.888 29.9914 10.1844 29.8507C10.3232 29.5661 10.5172 29.3235 10.7666 29.1229C10.6696 29.0744 10.5726 29.0259 10.4755 28.9774C9.94486 29.3405 9.36267 29.5345 8.72895 29.5596C9.28224 30.3828 9.08816 30.8679 8.14675 31.0151C5.76048 29.2594 3.96536 27.0277 2.76144 24.3198C2.32311 22.3016 2.22608 20.2639 2.47034 18.2068C2.69065 17.6785 2.93325 17.1934 3.19809 16.7513C2.85244 18.0336 2.65839 19.3435 2.61589 20.6811C2.71291 21.3118 2.80997 21.9425 2.90699 22.5732C3.1461 21.7155 3.29165 20.8422 3.34364 19.9534C3.44066 21.3118 3.53771 22.6703 3.63473 24.0287C3.77737 22.409 3.92292 20.8565 4.07138 19.3712C4.51097 19.9015 4.89909 20.4837 5.23577 21.1178C5.47593 21.3756 5.76703 21.4726 6.10907 21.4089C6.17203 20.7741 5.92946 20.2889 5.38132 19.9534C5.4219 18.8135 5.37337 17.6976 5.23577 16.6057C5.51173 16.4652 5.80283 16.4167 6.10907 16.4602C6.05972 17.1438 5.96267 17.823 5.81797 18.4979C5.77203 19.0273 5.96611 19.4154 6.40016 19.6623C6.69126 19.0801 6.98236 18.4979 7.27346 17.9157C8.12381 17.6518 8.99711 17.5547 9.89334 17.6246C9.89334 17.3335 9.89334 17.0424 9.89334 16.7513C11.4685 16.7872 12.0507 16.1079 11.6399 14.7136C10.9895 14.6787 10.3588 14.7758 9.74779 15.0047C9.42988 14.773 9.09026 14.5789 8.72895 14.4225C7.34076 14.6065 5.98232 14.8976 4.65358 15.2958C5.01713 14.8195 5.5023 14.4799 6.10907 14.277C12.4139 13.1005 15.5189 15.6719 15.4242 21.991Z" fill="#3BC440"/>
<path fill-rule="evenodd" clip-rule="evenodd" d="M64.0375 26.0664C65.9783 26.0664 67.9188 26.0664 69.8595 26.0664C69.8595 27.6189 69.8595 29.1715 69.8595 30.724C67.9188 30.724 65.9783 30.724 64.0375 30.724C65.8263 30.4357 67.6699 30.3387 69.5684 30.4329C69.5684 29.0744 69.5684 27.716 69.5684 26.3575C67.6699 26.4517 65.8263 26.3547 64.0375 26.0664Z" fill="#B0F4B1"/>
<path fill-rule="evenodd" clip-rule="evenodd" d="M33.7634 16.7513C34.7054 20.0177 35.627 23.3168 36.5288 26.6487C37.4728 23.3241 38.3944 20.0249 39.2942 16.7513C39.1856 18.9334 38.7973 21.0681 38.1298 23.1555C38.6104 24.4993 39.0957 25.8578 39.5853 27.2309C39.8499 26.6851 40.2383 26.297 40.7497 26.0665C39.9969 28.3746 39.3178 30.7033 38.712 33.0528C38.4224 36.2028 38.3255 39.4049 38.4209 42.659C37.0624 42.659 35.7041 42.659 34.3456 42.659C34.441 39.4049 34.3441 36.2028 34.0545 33.0528C33.8714 32.2095 33.5803 31.4332 33.1812 30.724C32.5707 27.9531 31.7944 25.2362 30.8524 22.5733C31.2279 22.7356 31.4704 23.0267 31.5801 23.4466C31.6771 23.2525 31.7743 23.0585 31.8712 22.8644C32.2517 23.2346 32.6883 23.5257 33.1812 23.7377C33.0537 24.0306 32.8598 24.0306 32.599 23.7377C32.3137 24.4906 32.2168 25.2669 32.3079 26.0665C32.599 26.0665 32.8901 26.0665 33.1812 26.0665C33.1174 26.4085 33.2144 26.6996 33.4723 26.9398C33.7771 26.5257 33.7771 26.0891 33.4723 25.6298C33.8478 24.8171 34.1875 23.9924 34.4911 23.1555C34.6902 23.9939 34.6416 24.8187 34.3456 25.6298C34.901 27.2789 35.1921 27.1333 35.2189 25.1932C35.2721 23.3951 34.6899 21.8911 33.4723 20.6812C33.849 20.6503 34.0431 20.3592 34.0545 19.8079C33.8257 18.8012 33.7284 17.7824 33.7634 16.7513Z" fill="#30B635"/>
<path fill-rule="evenodd" clip-rule="evenodd" d="M80.339 18.4978C79.1746 18.4978 78.0102 18.4978 76.8458 18.4978C76.7507 21.3645 76.8476 24.1784 77.1369 26.9397C78.051 27.2718 79.0212 27.3203 80.0479 27.0852C80.6086 26.9623 80.8997 26.6227 80.9212 26.0664C81.1154 25.7753 81.3092 25.4842 81.5034 25.1931C81.5034 25.6783 81.5034 26.1634 81.5034 26.6486C81.8914 26.6486 82.2798 26.6486 82.6678 26.6486C82.4512 27.6528 82.8396 28.1379 83.8322 28.1041C83.6602 28.2937 83.4663 28.4878 83.25 28.6863C83.8389 29.3712 84.4211 30.0504 84.9966 30.724C85.0015 31.325 85.0985 31.9072 85.2877 32.4705C85.336 33.9292 85.2874 35.3847 85.1421 36.837C85.0557 35.8432 84.8615 34.873 84.5599 33.926C84.309 34.388 84.1149 34.8733 83.9777 35.3815C83.8497 34.9228 83.6072 34.5344 83.25 34.2171C83.6709 33.0591 83.7682 31.8948 83.5411 30.724C83.3469 31.4032 83.1531 32.0825 82.9589 32.7616C82.4748 32.3614 82.0865 32.4583 81.7945 33.0527C81.6079 32.6181 81.3168 32.327 80.9212 32.1794C80.7271 32.0825 80.5332 31.9854 80.339 31.8883C79.7257 31.2621 78.9493 30.971 78.0102 31.0151C77.4767 31.0399 77.0886 31.234 76.8458 31.5973C76.3842 33.3692 76.1414 35.2127 76.1181 37.1281C75.9734 36.3579 75.9248 35.5815 75.9726 34.7993C75.3904 34.7993 74.8082 34.7993 74.226 34.7993C74.0924 36.2737 74.0924 37.7292 74.226 39.1658C74.1584 39.8347 73.9643 40.4655 73.6438 41.0579C73.686 41.2827 73.7829 41.4768 73.9349 41.6401C74.3229 41.7371 74.7112 41.8343 75.0993 41.9312C74.5992 42.0319 74.1139 42.1775 73.6438 42.3679C73.4732 42.307 73.3276 42.2098 73.2071 42.0768C73.1568 40.3744 73.0112 38.7248 72.7705 37.1281C72.7705 31.7913 72.7705 26.4545 72.7705 21.1177C72.962 23.121 73.2045 25.1587 73.4982 27.2308C73.959 26.5289 74.2501 25.7526 74.3715 24.902C74.4315 25.8111 74.6256 26.6844 74.9537 27.5219C75.5548 25.6178 75.9915 25.7148 76.2637 27.813C76.5058 24.6153 76.6514 21.4132 76.7003 18.2067C77.3885 17.6903 78.1648 17.3022 79.0291 17.0424C79.1746 17.1394 79.3202 17.2364 79.4657 17.3335C78.9493 17.5334 78.4641 17.776 78.0102 18.0612C78.8442 18.1144 79.6203 18.26 80.339 18.4978Z" fill="#2EBE35"/>
<path fill-rule="evenodd" clip-rule="evenodd" d="M80.9212 26.0664C80.8997 26.6227 80.6086 26.9623 80.0479 27.0852C79.0212 27.3203 78.051 27.2718 77.1369 26.9397C78.5389 27.1321 79.8002 26.841 80.9212 26.0664Z" fill="#A2DDA0"/>
<path fill-rule="evenodd" clip-rule="evenodd" d="M24.4482 14.4225C24.7369 14.3726 24.931 14.4696 25.0304 14.7136C22.2165 14.7136 19.4026 14.7136 16.5886 14.7136C16.5886 17.1394 16.5886 19.5653 16.5886 21.9911C16.5886 28.8804 16.5886 35.7696 16.5886 42.659C17.9471 42.659 19.3055 42.659 20.664 42.659C19.2085 43.047 17.753 43.047 16.2975 42.659C16.2975 33.2469 16.2975 23.8347 16.2975 14.4225C19.0144 14.4225 21.7313 14.4225 24.4482 14.4225Z" fill="#6AC86D"/>
<path fill-rule="evenodd" clip-rule="evenodd" d="M81.2123 14.7136C78.3983 14.7136 75.5845 14.7136 72.7705 14.7136C72.7705 16.8483 72.7705 18.9831 72.7705 21.1178C72.7705 26.4546 72.7705 31.7914 72.7705 37.1282C72.7705 38.9717 72.7705 40.8155 72.7705 42.659C74.129 42.659 75.4873 42.659 76.8458 42.659C75.4471 42.9463 73.9916 43.0436 72.4794 42.9501C72.4794 33.3439 72.4794 23.7377 72.4794 14.1314C75.101 14.083 77.7209 14.1315 80.339 14.277C80.6991 14.3445 80.9902 14.4901 81.2123 14.7136Z" fill="#70CE74"/>
<path fill-rule="evenodd" clip-rule="evenodd" d="M63.1642 18.4979C63.3584 18.4979 63.5523 18.4979 63.7464 18.4979C63.6515 21.074 63.7485 23.5968 64.0375 26.0665C65.8263 26.3547 67.6699 26.4517 69.5684 26.3576C69.5684 27.716 69.5684 29.0745 69.5684 30.4329C67.6699 30.3388 65.8263 30.4358 64.0375 30.724C63.7485 33.2909 63.6513 35.9108 63.7464 38.5837C63.5048 36.015 63.3593 33.3951 63.3098 30.724C63.2606 32.8653 63.1151 35 62.8731 37.1282C62.3541 36.6848 62.1602 36.1026 62.291 35.3816C61.9029 35.3816 61.5146 35.3816 61.1266 35.3816C61.25 36.6051 61.1044 37.7695 60.6899 38.8748C60.5784 36.7323 60.3843 34.5977 60.1077 32.4706C59.9555 33.8859 59.713 35.2442 59.38 36.546C59.38 33.247 59.38 29.9478 59.38 26.6487C59.6618 27.2621 59.759 27.9413 59.6711 28.6863C60.6716 29.0436 61.5449 29.6258 62.291 30.4329C62.6679 30.2588 63.056 30.1132 63.4553 29.9963C65.3935 29.8509 67.3342 29.8023 69.2773 29.8507C69.2773 28.8804 69.2773 27.9101 69.2773 26.9398C67.3697 26.7745 65.5259 26.9686 63.7464 27.522C63.3695 27.3478 62.9814 27.2022 62.5821 27.0853C62.7832 26.7746 62.9287 26.435 63.0187 26.0665C63.1642 23.5455 63.2126 21.0226 63.1642 18.4979Z" fill="#3ABA3C"/>
<path fill-rule="evenodd" clip-rule="evenodd" d="M20.664 27.813C20.761 27.813 20.858 27.813 20.9551 27.813C21.8691 28.1451 22.8394 28.1936 23.866 27.9585C24.1086 27.7159 24.3512 27.4733 24.5938 27.2308C25.0124 24.837 25.158 22.4112 25.0304 19.9533C25.3672 22.4248 25.4157 24.9476 25.176 27.5219C24.6794 27.7571 24.4369 28.1452 24.4482 28.6863C24.9506 28.7778 25.4358 28.8264 25.9037 28.8318C26.207 28.2735 26.5466 27.7398 26.9226 27.2308C27.067 27.6776 27.0185 28.1142 26.777 28.5407C26.8524 28.9079 27.0465 29.199 27.3592 29.414C27.9452 29.5039 28.0422 29.3099 27.6503 28.8318C28.0268 28.6892 28.415 28.6406 28.8147 28.6863C28.4395 29.8331 27.7602 30.7064 26.777 31.3061C24.8179 31.7068 22.8772 31.9979 20.9551 32.1794C21.0507 35.7244 20.9536 39.2176 20.664 42.659C19.3055 42.659 17.9471 42.659 16.5886 42.659C16.5886 35.7695 16.5886 28.8803 16.5886 21.991C16.8186 22.3137 16.9641 22.7018 17.0252 23.1554C17.1223 21.991 17.2193 20.8266 17.3163 19.6622C17.4618 21.989 17.5103 24.3178 17.4619 26.6486C17.8039 26.5848 18.095 26.6819 18.3352 26.9397C18.4739 27.3562 18.668 27.7444 18.9174 28.1041C19.1793 25.524 19.7615 25.427 20.664 27.813Z" fill="#2CB231"/>
<path fill-rule="evenodd" clip-rule="evenodd" d="M44.534 23.7376C44.534 30.0447 44.534 36.3517 44.534 42.6589C47.5436 42.7072 50.5516 42.6589 53.558 42.5134C54.514 42.2127 55.3873 41.776 56.1779 41.2034C56.2274 41.5883 56.1304 41.928 55.8868 42.2223C54.7792 42.7419 53.6148 42.9844 52.3936 42.95C49.6768 42.95 46.9597 42.95 44.2429 42.95C44.2915 33.8285 44.2429 24.7074 44.0973 15.5868C44.0164 15.8534 43.8709 16.0475 43.6607 16.169C43.6173 15.8628 43.6656 15.5717 43.8062 15.2957C44.0004 14.9076 44.1943 14.9076 44.3884 15.2957C44.534 18.108 44.5823 20.922 44.534 23.7376Z" fill="#82D781"/>
<path fill-rule="evenodd" clip-rule="evenodd" d="M26.777 31.3062C26.3864 31.6825 25.9012 31.9251 25.3215 32.0339C23.8693 32.1792 22.4138 32.2278 20.9551 32.1794C22.8772 31.9979 24.8179 31.7068 26.777 31.3062Z" fill="#81DA85"/>
<path fill-rule="evenodd" clip-rule="evenodd" d="M85.2877 32.4706C85.4818 35.3816 85.6757 38.2925 85.8699 41.2035C86.0434 41.756 86.0434 42.2413 85.8699 42.659C84.3867 42.7402 82.9312 42.643 81.5034 42.3679C81.5517 39.4552 81.5034 36.5442 81.3579 33.635C81.2554 33.1264 81.1099 32.6412 80.9212 32.1795C81.3168 32.3271 81.6079 32.6182 81.7945 33.0528C82.0865 32.4584 82.4748 32.3614 82.9589 32.7617C83.1531 32.0826 83.3469 31.4032 83.5411 30.724C83.7682 31.8949 83.6709 33.0592 83.25 34.2172C83.6072 34.5345 83.8497 34.9228 83.9777 35.3816C84.1149 34.8733 84.309 34.388 84.5599 33.9261C84.8615 34.873 85.0557 35.8432 85.1421 36.8371C85.2874 35.3848 85.336 33.9293 85.2877 32.4706Z" fill="#26AF2B"/>
<path fill-rule="evenodd" clip-rule="evenodd" d="M80.339 31.8884C79.2809 31.7096 78.2134 31.6125 77.1369 31.5973C77.2327 35.3362 77.1355 39.0235 76.8458 42.659C76.8458 38.9717 76.8458 35.2846 76.8458 31.5973C77.0886 31.234 77.4767 31.04 78.0102 31.0151C78.9493 30.971 79.7257 31.2621 80.339 31.8884Z" fill="#AFE7AE"/>
<path fill-rule="evenodd" clip-rule="evenodd" d="M6.40017 35.3816C6.13702 35.1752 6.03999 34.8841 6.10907 34.5083C3.1273 33.6195 1.86588 34.687 2.3248 37.7103C2.03853 36.6048 1.94148 35.4404 2.0337 34.2172C3.48919 34.2172 4.94468 34.2172 6.40017 34.2172C6.40017 34.6052 6.40017 34.9935 6.40017 35.3816Z" fill="#6BB56D"/>
<path fill-rule="evenodd" clip-rule="evenodd" d="M76.8458 31.5973C76.8458 35.2846 76.8458 38.9717 76.8458 42.659C75.4873 42.659 74.129 42.659 72.7705 42.659C72.7705 40.8155 72.7705 38.9717 72.7705 37.1281C73.0112 38.7248 73.1568 40.3745 73.2071 42.0768C73.3276 42.2098 73.4732 42.3071 73.6438 42.3679C74.1139 42.1775 74.5992 42.032 75.0993 41.9313C74.7112 41.8343 74.3229 41.7371 73.9349 41.6402C73.7829 41.4769 73.686 41.2827 73.6438 41.058C73.9643 40.4656 74.1584 39.8348 74.226 39.1658C74.0924 37.7293 74.0924 36.2738 74.226 34.7994C74.8082 34.7994 75.3904 34.7994 75.9726 34.7994C75.9248 35.5815 75.9734 36.3579 76.1181 37.1281C76.1414 35.2127 76.3842 33.3692 76.8458 31.5973Z" fill="#25AA2B"/>
<path fill-rule="evenodd" clip-rule="evenodd" d="M11.0577 27.5219C13.4771 29.2593 14.9326 31.5881 15.4242 34.5082C15.5024 36.3855 15.3083 38.2293 14.842 40.0391C12.1512 43.1768 8.85208 43.9532 4.94468 42.3678C4.64534 41.8261 4.2087 41.4378 3.63474 41.2034C2.95598 40.1357 2.51934 38.9713 2.3248 37.7103C1.86588 34.6869 3.1273 33.6195 6.10907 34.5082C6.03999 34.884 6.13701 35.1751 6.40017 35.3815C6.14621 36.8216 6.53433 38.0343 7.56456 39.0202C8.96398 39.3876 10.0313 38.9509 10.7666 37.7103C11.2692 36.0411 11.0267 34.4887 10.0389 33.0527C9.34835 32.4114 8.71763 31.7321 8.14675 31.015C9.08816 30.8678 9.28224 30.3827 8.72895 29.5595C9.36267 29.5345 9.94486 29.3404 10.4755 28.9773C10.5726 29.0259 10.6696 29.0744 10.7666 29.1229C10.5173 29.3235 10.3232 29.5661 10.1844 29.8506C10.8881 29.9914 11.3732 29.6517 11.6399 28.8318C11.3739 28.4224 11.1798 27.9857 11.0577 27.5219Z" fill="#27A82B"/>
<path fill-rule="evenodd" clip-rule="evenodd" d="M63.7464 38.5836C66.3663 38.5836 68.9862 38.5836 71.6061 38.5836C71.6989 39.9992 71.602 41.3578 71.315 42.659C71.315 41.3977 71.315 40.136 71.315 38.8747C68.7391 38.9696 66.2161 38.8727 63.7464 38.5836Z" fill="#A1D6A2"/>
<path fill-rule="evenodd" clip-rule="evenodd" d="M84.9966 30.724C85.3046 31.0443 85.5473 31.4324 85.7243 31.8884C85.8699 34.9918 85.9185 38.0969 85.8699 41.2035C85.6757 38.2925 85.4818 35.3816 85.2877 32.4706C85.0985 31.9073 85.0015 31.3251 84.9966 30.724Z" fill="#73C379"/>
<path fill-rule="evenodd" clip-rule="evenodd" d="M57.3423 17.6246C57.5659 17.8466 57.7114 18.1377 57.7789 18.4979C57.9731 24.9991 57.9731 31.5003 57.7789 38.0015C57.395 39.1577 56.8611 40.2252 56.1779 41.2036C55.3873 41.7761 54.514 42.2128 53.558 42.5135C50.5516 42.659 47.5436 42.7074 44.534 42.659C44.534 36.3518 44.534 30.0448 44.534 23.7377C44.9855 27.0788 45.3252 30.4749 45.5528 33.9261C45.8949 32.2674 46.2829 30.6178 46.7172 28.9774C47.0211 29.3042 47.215 29.6924 47.2994 30.1418C47.4688 29.2197 47.7599 29.1227 48.1727 29.8507C48.2696 26.1635 48.3669 22.4763 48.4638 18.789C48.5753 18.6272 48.7208 18.5302 48.9005 18.4979C48.9005 25.1932 48.9005 31.8884 48.9005 38.5837C50.0648 38.5837 51.2292 38.5837 52.3936 38.5837C53.1324 38.4873 53.6174 38.0993 53.8491 37.4193C53.802 38.0093 53.8506 38.5915 53.9947 39.1659C54.0916 39.0689 54.1888 38.9717 54.2858 38.8748C54.3827 36.4491 54.4799 34.023 54.5769 31.5973C54.553 33.7992 54.8927 35.9338 55.5957 38.0015C55.9229 37.5899 56.214 37.1532 56.469 36.6915C56.1596 36.3457 55.7712 36.2002 55.3046 36.2549C55.3046 35.9638 55.3046 35.6727 55.3046 35.3816C55.8868 35.3816 56.469 35.3816 57.0512 35.3816C57.2355 31.355 57.4296 27.3281 57.6334 23.301C57.6331 21.7453 57.5362 20.2413 57.3423 18.789C57.3423 18.4009 57.3423 18.0128 57.3423 17.6246Z" fill="#2DAE31"/>
<path fill-rule="evenodd" clip-rule="evenodd" d="M57.3423 18.7889C57.5362 20.2412 57.6331 21.7452 57.6334 23.301C57.4296 27.3281 57.2355 31.3549 57.0512 35.3815C56.469 35.3815 55.8868 35.3815 55.3046 35.3815C55.3046 35.6726 55.3046 35.9637 55.3046 36.2548C55.7712 36.2001 56.1596 36.3456 56.469 36.6915C56.214 37.1531 55.9229 37.5898 55.5957 38.0014C54.8927 35.9337 54.553 33.7991 54.5769 31.5972C54.4799 34.023 54.3827 36.449 54.2858 38.8747C54.1888 38.9716 54.0916 39.0689 53.9947 39.1658C53.8506 38.5915 53.802 38.0093 53.8491 37.4192C53.8491 33.6349 53.8491 29.8507 53.8491 26.0664C54.0881 26.9808 54.2337 27.9512 54.2858 28.9774C54.3827 26.2605 54.4799 23.5435 54.5769 20.8266C54.6738 22.2821 54.771 23.7376 54.868 25.1931C55.1343 25.4341 55.3282 25.7252 55.4502 26.0664C55.658 24.0164 55.9491 23.9193 56.3235 25.7753C56.6178 26.0188 56.9575 26.1159 57.3423 26.0664C57.3423 23.6406 57.3423 21.2147 57.3423 18.7889Z" fill="#28B82E"/>
<path fill-rule="evenodd" clip-rule="evenodd" d="M53.558 20.5355C53.8462 22.3242 53.9431 24.1678 53.8491 26.0664C53.8491 29.8507 53.8491 33.6349 53.8491 37.4192C53.6174 38.0992 53.1324 38.4872 52.3936 38.5836C52.7825 38.144 53.1222 37.6588 53.4125 37.1281C53.558 31.5981 53.6066 26.0672 53.558 20.5355Z" fill="#57BA5C"/>
<path fill-rule="evenodd" clip-rule="evenodd" d="M63.7464 38.5836C66.2161 38.8727 68.7391 38.9696 71.315 38.8747C71.315 40.1361 71.315 41.3977 71.315 42.659C67.3881 42.9489 63.4099 43.0459 59.38 42.9501C59.38 40.8155 59.38 38.6806 59.38 36.546C59.713 35.2442 59.9555 33.8859 60.1077 32.4706C60.3843 34.5976 60.5784 36.7323 60.6899 38.8747C61.1044 37.7694 61.25 36.605 61.1266 35.3816C61.5146 35.3816 61.9029 35.3816 62.291 35.3816C62.1602 36.1026 62.3541 36.6848 62.8731 37.1282C63.1151 34.9999 63.2606 32.8653 63.3098 30.724C63.3593 33.3951 63.5048 36.015 63.7464 38.5836Z" fill="#2BAA2E"/>
<path fill-rule="evenodd" clip-rule="evenodd" d="M81.5034 42.3679C82.9313 42.643 84.3867 42.7402 85.8699 42.659C85.1974 42.8523 84.4697 42.9492 83.6867 42.9501C82.834 42.9428 82.1063 42.749 81.5034 42.3679Z" fill="#8EDF92"/>
<path fill-rule="evenodd" clip-rule="evenodd" d="M34.0545 33.0527C34.3441 36.2027 34.441 39.4048 34.3456 42.659C35.7041 42.659 37.0624 42.659 38.4209 42.659C37.0222 42.9463 35.5667 43.0435 34.0545 42.9501C34.0545 39.651 34.0545 36.3517 34.0545 33.0527Z" fill="#69BB6D"/>
<path fill-rule="evenodd" clip-rule="evenodd" d="M126.89 15.3022C128.828 14.9574 130.82 14.9077 132.865 15.1528C133.895 15.9323 134.891 16.7788 135.853 17.6924C136.285 18.3252 136.484 19.0223 136.45 19.7838C136.121 19.381 135.823 18.9328 135.554 18.4393C135.17 18.235 134.822 18.2848 134.508 18.5887C134.604 16.9439 133.857 15.948 132.267 15.601C130.486 15.3035 128.693 15.2038 126.89 15.3022Z" fill="#5BCE5E"/>
<path fill-rule="evenodd" clip-rule="evenodd" d="M126.89 15.3022C126.279 16.2114 125.482 16.9086 124.499 17.3937C124.786 16.1494 125.583 15.4523 126.89 15.3022Z" fill="#70CE70"/>
<path fill-rule="evenodd" clip-rule="evenodd" d="M142.127 15.3022C142.127 20.481 142.127 25.6597 142.127 30.8384C141.897 31.0662 141.748 31.365 141.679 31.7348C141.579 30.1413 141.479 28.5478 141.38 26.9544C141.281 27.4524 141.181 27.9503 141.081 28.4482C140.959 27.8777 140.611 27.5789 140.036 27.5519C139.415 27.7978 138.917 28.1961 138.542 28.747C138.635 27.6888 138.535 26.6929 138.243 25.7593C138.243 22.2736 138.243 18.7879 138.243 15.3022C139.537 15.3022 140.832 15.3022 142.127 15.3022Z" fill="#31CA39"/>
<path fill-rule="evenodd" clip-rule="evenodd" d="M126.89 15.3022C128.693 15.2038 130.486 15.3034 132.267 15.6009C133.858 15.9479 134.604 16.9438 134.508 18.5887C134.822 18.2848 135.17 18.235 135.554 18.4393C135.823 18.9327 136.121 19.3809 136.45 19.7838C136.45 21.5764 136.45 23.369 136.45 25.1617C135.056 25.1617 133.662 25.1617 132.267 25.1617C132.317 23.5651 132.267 21.9716 132.118 20.3813C130.688 18.7987 129.244 18.7987 127.786 20.3813C127.602 20.4144 127.452 20.514 127.338 20.6801C127.188 26.3559 127.138 32.0326 127.188 37.7101C126.891 34.178 126.792 30.5929 126.89 26.9543C126.491 26.9543 126.093 26.9543 125.694 26.9543C125.666 25.8158 125.467 25.8158 125.097 26.9543C124.491 25.397 123.993 25.397 123.603 26.9543C123.538 24.2555 123.638 21.5665 123.902 18.8874C123.902 18.4891 123.902 18.0907 123.902 17.6924C124.004 17.4419 124.203 17.3423 124.499 17.3936C125.482 16.9085 126.279 16.2114 126.89 15.3022Z" fill="#34CB39"/>
<path fill-rule="evenodd" clip-rule="evenodd" d="M169.913 27.5519C171.749 27.8477 173.641 27.9473 175.589 27.8506C175.589 28.8465 175.589 29.8425 175.589 30.8384C173.687 30.9369 171.794 30.8373 169.913 30.5396C171.497 30.2918 173.091 30.1424 174.693 30.0914C174.83 29.9678 174.93 29.8184 174.992 29.6433C173.208 29.3952 171.415 29.2458 169.614 29.1951C169.176 28.8672 168.927 28.4191 168.867 27.8506C168.621 29.1697 168.273 29.2693 167.821 28.1494C167.496 28.4157 167.496 28.7145 167.821 29.0457C167.483 29.3756 167.234 29.2759 167.074 28.747C166.975 28.9462 166.875 29.1453 166.776 29.3445C166.651 28.9943 166.452 28.6955 166.178 28.4482C166.045 25.456 165.846 22.4682 165.581 19.485C165.431 23.3678 165.381 27.2518 165.431 31.1371C165.431 35.5192 165.431 39.9011 165.431 44.2832C169.515 44.2832 173.598 44.2832 177.681 44.2832C173.551 44.5807 169.368 44.6802 165.132 44.5819C165.132 34.7224 165.132 24.8629 165.132 15.0034C169.315 15.0034 173.498 15.0034 177.681 15.0034C177.681 16.4973 177.681 17.9911 177.681 19.485C175.091 19.485 172.502 19.485 169.913 19.485C169.913 22.174 169.913 24.8629 169.913 27.5519Z" fill="#4ACC4C"/>
<path fill-rule="evenodd" clip-rule="evenodd" d="M166.029 15.8998C169.66 15.6024 173.345 15.5028 177.083 15.601C177.306 16.6821 177.405 17.7776 177.382 18.8875C174.89 18.8378 172.401 18.8876 169.913 19.0369C169.175 19.9429 168.877 20.9887 169.016 22.174C168.718 22.174 168.419 22.174 168.12 22.174C168.168 22.6817 168.118 23.1796 167.971 23.6679C167.699 22.7317 167.599 21.8354 167.672 20.9789C167.268 21.333 166.919 21.7314 166.626 22.174C166.42 22.0171 166.27 21.8179 166.178 21.5765C166.029 20.1857 165.979 18.7914 166.029 17.3936C166.343 17.4383 166.642 17.3885 166.925 17.2443C166.527 16.9455 166.527 16.6467 166.925 16.3479C166.618 16.1946 166.319 16.0452 166.029 15.8998Z" fill="#38D53E"/>
<path fill-rule="evenodd" clip-rule="evenodd" d="M175.888 27.552C176.183 28.8875 176.282 30.2818 176.187 31.7348C174.096 31.7348 172.004 31.7348 169.913 31.7348C171.849 31.4388 173.84 31.3392 175.888 31.436C175.888 30.1414 175.888 28.8467 175.888 27.552Z" fill="#7DE285"/>
<path fill-rule="evenodd" clip-rule="evenodd" d="M130.475 28.1493C132.51 27.8532 134.602 27.7536 136.749 27.8506C136.847 31.4891 136.748 35.0743 136.45 38.6064C136.45 35.1206 136.45 31.635 136.45 28.1493C134.458 28.1493 132.467 28.1493 130.475 28.1493Z" fill="#8DCC8F"/>
<path fill-rule="evenodd" clip-rule="evenodd" d="M142.426 15.0034C142.426 15.103 142.426 15.2026 142.426 15.3022C142.326 15.3022 142.226 15.3022 142.127 15.3022C140.832 15.3022 139.537 15.3022 138.243 15.3022C138.243 18.7879 138.243 22.2735 138.243 25.7592C138.243 31.9339 138.243 38.1084 138.243 44.2832C142.127 44.2832 146.011 44.2832 149.895 44.2832C145.964 44.5807 141.981 44.6802 137.944 44.5819C137.944 34.7224 137.944 24.8629 137.944 15.0034C139.438 15.0034 140.932 15.0034 142.426 15.0034Z" fill="#72C773"/>
<path fill-rule="evenodd" clip-rule="evenodd" d="M150.194 15.0034C151.688 15.0034 153.182 15.0034 154.675 15.0034C154.675 22.9707 154.675 30.938 154.675 38.9052C154.379 36.7696 154.28 34.5787 154.377 32.3322C154.377 28.9462 154.377 25.56 154.377 22.174C154.377 19.8834 154.377 17.5928 154.377 15.3022C153.082 15.3022 151.787 15.3022 150.493 15.3022C150.493 20.7797 150.493 26.2572 150.493 31.7347C150.493 34.2244 150.493 36.7143 150.493 39.204C150.493 39.3035 150.493 39.4033 150.493 39.5028C150.393 39.5028 150.293 39.5028 150.194 39.5028C150.194 31.3363 150.194 23.1699 150.194 15.0034Z" fill="#53BC59"/>
<path fill-rule="evenodd" clip-rule="evenodd" d="M154.377 22.174C154.129 24.9101 153.979 27.6986 153.928 30.5397C153.697 29.45 153.498 28.3546 153.331 27.2532C153.038 27.6958 152.689 28.0941 152.285 28.4482C151.836 28.2833 151.338 28.2833 150.791 28.4482C150.885 29.6049 150.786 30.7004 150.493 31.7348C150.493 26.2573 150.493 20.7797 150.493 15.3022C151.787 15.3022 153.082 15.3022 154.377 15.3022C154.377 17.5928 154.377 19.8834 154.377 22.174Z" fill="#30CA37"/>
<path fill-rule="evenodd" clip-rule="evenodd" d="M123.902 17.6924C123.902 18.0907 123.902 18.4891 123.902 18.8875C123.672 19.1153 123.523 19.4141 123.454 19.7838C123.304 26.1568 123.254 32.5307 123.304 38.9053C122.957 32.3832 122.907 25.8102 123.155 19.1862C123.381 18.6441 123.63 18.1462 123.902 17.6924Z" fill="#71C376"/>
<path fill-rule="evenodd" clip-rule="evenodd" d="M154.675 15.0034C154.924 23.1192 155.073 31.2856 155.124 39.5028C156.12 40.5333 157.265 40.6826 158.559 39.9509C158.918 39.6812 159.167 39.3328 159.306 38.9052C159.456 30.9386 159.506 22.9713 159.456 15.0034C160.95 15.0034 162.443 15.0034 163.937 15.0034C164.036 23.0221 163.937 30.9893 163.639 38.9052C163.737 30.9862 163.638 23.1185 163.34 15.3022C162.344 15.3022 161.348 15.3022 160.352 15.3022C159.806 23.1642 159.557 31.1315 159.605 39.204C158.731 41.3874 157.287 41.8356 155.273 40.5485C154.778 40.1171 154.579 39.5691 154.675 38.9052C154.675 30.938 154.675 22.9707 154.675 15.0034Z" fill="#7BCE7E"/>
<path fill-rule="evenodd" clip-rule="evenodd" d="M130.475 28.1494C132.467 28.1494 134.458 28.1494 136.45 28.1494C136.45 31.6351 136.45 35.1207 136.45 38.6065C136.45 38.706 136.45 38.8057 136.45 38.9052C135.789 39.1741 135.291 38.925 134.956 38.1583C135.156 37.959 135.355 37.76 135.554 37.5608C135.106 37.3119 134.757 36.9632 134.508 36.5151C134.309 37.0131 134.309 37.5109 134.508 38.0089C134.86 38.8697 135.209 39.7161 135.554 40.5485C135.275 41.4908 135.076 41.4412 134.956 40.3991C133.647 40.2318 132.701 40.7295 132.118 41.893C131.708 41.57 131.26 41.3208 130.774 41.146C131.874 40.9677 132.521 40.3202 132.716 39.204C132.765 38.0588 132.815 36.9133 132.865 35.7681C132.862 34.5046 132.663 33.3594 132.267 32.3322C131.57 32.3322 130.873 32.3322 130.176 32.3322C130.081 30.8792 130.18 29.4849 130.475 28.1494Z" fill="#28B22D"/>
<path fill-rule="evenodd" clip-rule="evenodd" d="M154.377 22.1741C154.377 25.5602 154.377 28.9463 154.377 32.3323C154.129 34.6696 153.98 37.0598 153.928 39.5029C153.603 38.4754 153.254 37.4793 152.883 36.5152C152.484 36.5152 152.086 36.5152 151.688 36.5152C151.422 37.4922 151.023 38.3885 150.493 39.2041C150.493 36.7144 150.493 34.2245 150.493 31.7348C150.786 30.7005 150.885 29.605 150.791 28.4483C151.338 28.2833 151.836 28.2833 152.285 28.4483C152.689 28.0942 153.038 27.6958 153.331 27.2532C153.498 28.3546 153.697 29.4501 153.928 30.5397C153.979 27.6987 154.129 24.9101 154.377 22.1741Z" fill="#25B62B"/>
<path fill-rule="evenodd" clip-rule="evenodd" d="M169.913 27.5519C171.905 27.5519 173.896 27.5519 175.888 27.5519C175.888 28.8465 175.888 30.1412 175.888 31.4359C173.84 31.3391 171.849 31.4387 169.913 31.7347C169.913 34.5231 169.913 37.3119 169.913 40.1003C169.666 38.9462 169.417 37.7511 169.166 36.515C169.017 37.3056 168.967 38.1024 169.016 38.9052C168.531 38.8634 168.183 39.0627 167.971 39.5028C167.573 38.7059 167.174 38.7059 166.776 39.5028C166.676 39.4033 166.576 39.3035 166.477 39.204C165.931 36.4983 165.583 33.8093 165.431 31.1371C165.381 27.2518 165.431 23.3677 165.581 19.485C165.846 22.4682 166.045 25.4559 166.178 28.4482C166.452 28.6955 166.651 28.9943 166.776 29.3445C166.875 29.1453 166.975 28.9461 167.074 28.7469C167.234 29.2759 167.483 29.3755 167.821 29.0457C167.496 28.7145 167.496 28.4157 167.821 28.1494C168.273 29.2693 168.621 29.1697 168.867 27.8506C168.927 28.419 169.176 28.8672 169.614 29.1951C171.415 29.2458 173.208 29.3952 174.992 29.6433C174.93 29.8183 174.83 29.9677 174.693 30.0914C173.091 30.1424 171.497 30.2917 169.913 30.5396C171.794 30.8372 173.687 30.9369 175.589 30.8384C175.589 29.8425 175.589 28.8465 175.589 27.8506C173.641 27.9473 171.749 27.8477 169.913 27.5519Z" fill="#2CB632"/>
<path fill-rule="evenodd" clip-rule="evenodd" d="M165.431 31.1372C165.583 33.8094 165.931 36.4984 166.477 39.2041C166.576 39.3036 166.676 39.4034 166.776 39.5028C167.174 38.706 167.573 38.706 167.971 39.5028C168.183 39.0628 168.531 38.8635 169.016 38.9053C168.967 38.1025 169.017 37.3057 169.166 36.5151C169.417 37.7511 169.666 38.9462 169.913 40.1004C172.502 40.1004 175.091 40.1004 177.681 40.1004C177.681 41.4948 177.681 42.8888 177.681 44.2832C173.598 44.2832 169.515 44.2832 165.431 44.2832C165.431 39.9011 165.431 35.5193 165.431 31.1372Z" fill="#26A82C"/>
<path fill-rule="evenodd" clip-rule="evenodd" d="M123.902 18.8875C123.638 21.5665 123.538 24.2555 123.603 26.9543C123.553 31.1383 123.603 35.3212 123.752 39.5028C123.936 39.9856 124.235 40.3839 124.649 40.6979C124.812 39.7412 125.111 38.8449 125.545 38.0089C125.888 38.6755 126.187 39.3728 126.441 40.1003C127.088 39.4571 127.337 38.6605 127.188 37.7101C127.138 32.0326 127.188 26.3559 127.338 20.6801C127.452 20.514 127.602 20.4144 127.786 20.3813C127.444 26.5431 127.394 32.7177 127.636 38.9052C128.488 40.3931 129.733 40.7914 131.371 40.1003C131.62 39.8015 131.869 39.5028 132.118 39.204C132.267 36.9157 132.317 34.625 132.267 32.3322C132.663 33.3594 132.862 34.5046 132.865 35.7681C132.815 36.9133 132.765 38.0588 132.716 39.204C132.521 40.3202 131.874 40.9677 130.774 41.146C131.26 41.3208 131.708 41.57 132.118 41.893C132.701 40.7295 133.647 40.2318 134.956 40.3991C135.076 41.4412 135.275 41.4908 135.554 40.5485C135.209 39.7161 134.86 38.8697 134.508 38.0089C134.309 37.5109 134.309 37.0131 134.508 36.515C134.757 36.9632 135.106 37.3119 135.554 37.5608C135.355 37.76 135.156 37.959 134.956 38.1583C135.291 38.9249 135.789 39.1741 136.45 38.9052C136.45 40.0982 136.151 41.1935 135.554 42.1917C134.563 43.3868 133.269 44.1338 131.67 44.4325C130.379 44.5816 129.084 44.6315 127.786 44.5819C125.877 44.2198 124.532 43.1242 123.752 41.2954C123.43 40.5297 123.281 39.7331 123.304 38.9052C123.254 32.5306 123.304 26.1568 123.454 19.7838C123.523 19.414 123.672 19.1153 123.902 18.8875Z" fill="#26A52B"/>
<path fill-rule="evenodd" clip-rule="evenodd" d="M127.188 37.7103C127.337 38.6607 127.088 39.4572 126.441 40.1005C126.187 39.373 125.888 38.6756 125.545 38.0091C125.111 38.8451 124.812 39.7414 124.649 40.698C124.235 40.384 123.936 39.9858 123.752 39.503C123.603 35.3213 123.553 31.1385 123.603 26.9545C123.993 25.3972 124.491 25.3972 125.097 26.9545C125.467 25.816 125.666 25.816 125.694 26.9545C126.093 26.9545 126.491 26.9545 126.89 26.9545C126.792 30.593 126.891 34.1782 127.188 37.7103Z" fill="#23B22A"/>
<path fill-rule="evenodd" clip-rule="evenodd" d="M160.352 15.3022C160.006 23.1484 159.957 31.0161 160.203 38.9053C160.314 38.2486 160.464 37.6012 160.651 36.9633C160.186 34.7879 160.286 32.6466 160.95 30.5397C161.177 30.8768 161.377 31.2253 161.547 31.5854C162.089 31.5715 162.587 31.6213 163.041 31.7348C163.34 26.2609 163.439 20.7834 163.34 15.3022C163.638 23.1186 163.737 30.9862 163.639 38.9053C163.521 41.2306 162.426 42.9238 160.352 43.9844C158.064 44.7618 155.774 44.7618 153.48 43.9844C152.087 43.2847 151.19 42.1891 150.791 40.6979C150.871 40.2202 150.772 39.8219 150.493 39.5028C150.493 39.4034 150.493 39.3036 150.493 39.2041C151.023 38.3884 151.422 37.4921 151.688 36.5151C152.086 36.5151 152.484 36.5151 152.883 36.5151C153.254 37.4793 153.603 38.4754 153.928 39.5028C153.98 37.0598 154.129 34.6696 154.377 32.3323C154.28 34.5788 154.379 36.7697 154.675 38.9053C154.579 39.5692 154.778 40.1171 155.273 40.5485C157.287 41.8357 158.731 41.3875 159.605 39.2041C159.557 31.1316 159.806 23.1643 160.352 15.3022Z" fill="#26AB2C"/>
<path fill-rule="evenodd" clip-rule="evenodd" d="M160.352 15.3022C161.348 15.3022 162.344 15.3022 163.34 15.3022C163.439 20.7834 163.34 26.2609 163.041 31.7348C162.587 31.6213 162.089 31.5715 161.547 31.5854C161.377 31.2253 161.177 30.8768 160.95 30.5397C160.286 32.6466 160.186 34.7879 160.651 36.9633C160.464 37.6012 160.314 38.2486 160.203 38.9053C159.957 31.0161 160.006 23.1484 160.352 15.3022Z" fill="#33CA39"/>
<path fill-rule="evenodd" clip-rule="evenodd" d="M142.127 15.3022C142.226 15.3022 142.326 15.3022 142.426 15.3022C142.426 23.6679 142.426 32.0335 142.426 40.3992C144.915 40.3992 147.405 40.3992 149.895 40.3992C149.895 41.6937 149.895 42.9886 149.895 44.2832C146.011 44.2832 142.127 44.2832 138.243 44.2832C138.243 38.1085 138.243 31.9339 138.243 25.7593C138.535 26.6929 138.635 27.6888 138.542 28.747C138.492 32.5328 138.542 36.3173 138.691 40.1004C139.299 38.1494 139.747 36.1578 140.036 34.1249C140.26 34.3867 140.409 34.6854 140.484 35.0213C140.864 34.3598 141.163 33.6627 141.38 32.9298C141.603 34.2869 141.553 35.6313 141.231 36.9633C141.339 37.3293 141.488 37.6776 141.679 38.009C142.073 35.637 142.223 33.2468 142.127 30.8384C142.127 25.6597 142.127 20.481 142.127 15.3022Z" fill="#23A629"/>
<path fill-rule="evenodd" clip-rule="evenodd" d="M142.127 30.8384C142.223 33.2468 142.073 35.637 141.679 38.0089C141.488 37.6776 141.339 37.3292 141.231 36.9632C141.553 35.6313 141.603 34.2868 141.38 32.9298C141.163 33.6627 140.864 34.3597 140.484 35.0212C140.409 34.6854 140.26 34.3866 140.036 34.1249C139.747 36.1577 139.299 38.1494 138.691 40.1003C138.542 36.3173 138.492 32.5328 138.542 28.747C138.917 28.1961 139.415 27.7977 140.036 27.5519C140.611 27.5789 140.959 27.8777 141.081 28.4482C141.181 27.9502 141.281 27.4523 141.38 26.9543C141.479 28.5478 141.579 30.1413 141.679 31.7347C141.748 31.365 141.897 31.0662 142.127 30.8384Z" fill="#25B62D"/>
<path fill-rule="evenodd" clip-rule="evenodd" d="M153.48 43.9844C155.774 44.7618 158.064 44.7618 160.352 43.9844C160.099 44.4224 159.701 44.6716 159.157 44.7313C157.763 44.9306 156.369 44.9306 154.974 44.7313C154.331 44.7017 153.833 44.4526 153.48 43.9844Z" fill="#8BDB8F"/>
<path fill-rule="evenodd" clip-rule="evenodd" d="M118.016 40.9624C118.568 39.9526 118.815 38.8248 118.757 37.5789C118.755 36.7534 118.631 36.0015 118.386 35.3233C115.538 33.3598 112.574 31.6681 109.497 30.2481C111.775 32.2465 113.997 34.3142 116.164 36.4511C116.418 41.891 115.245 47.0289 112.645 51.8647C111.541 53.4237 110.245 54.8023 108.756 56C112.619 50.6748 114.409 44.5346 114.127 37.5789C113.251 36.3797 112.325 35.2519 111.349 34.1955C110.516 32.8863 109.59 31.6332 108.571 30.4361C108.618 31.4127 108.988 32.2898 109.682 33.0677C109.867 34.1886 109.928 35.3165 109.867 36.4511C108.232 40.094 105.516 41.159 101.719 39.6466C98.9107 36.6188 98.7874 33.4861 101.348 30.2481C101.225 30.1855 101.101 30.1228 100.978 30.0602C98.9448 32.6771 96.9077 35.3086 94.8664 37.9549C94.7764 40.6102 95.0235 43.2417 95.6072 45.8496C96.7243 49.365 98.2059 52.6233 100.052 55.6241C94.6827 50.3662 92.337 43.9752 93.0145 36.4511C95.0398 34.7718 96.9536 32.9549 98.7555 31C95.9617 32.0747 93.3071 33.5158 90.7921 35.3233C90.5425 40.9564 91.8389 46.1568 94.6812 50.9248C94.5579 50.9876 94.4342 51.05 94.3109 51.1128C91.3199 47.6722 89.4061 43.662 88.5698 39.0827C88.3042 37.7154 88.119 36.3368 88.0142 34.9474C87.9357 34.0032 88.1827 33.1887 88.755 32.5038C91.797 31.3283 94.8835 30.2632 98.0148 29.3083C98.3752 29.1253 98.7455 28.9373 99.1259 28.7444C96.1654 28.5565 93.2023 28.4938 90.2366 28.5564C90.2403 25.0269 90.4873 21.5182 90.9773 18.0301C91.577 13.7425 93.2438 9.98312 95.9776 6.75188C95.7958 7.75959 95.4872 8.76211 95.0516 9.7594C94.2701 11.2639 93.7764 12.893 93.5701 14.6466C92.8204 18.4887 92.45 22.3734 92.4589 26.3008C94.5372 26.7291 96.6362 26.9171 98.7555 26.8647C97.2973 26.2466 95.8776 25.5574 94.4961 24.797C94.4342 23.7945 94.3727 22.792 94.3109 21.7895C94.4586 17.8363 95.3846 14.0769 97.0888 10.5113C97.4373 9.92429 97.8696 9.42305 98.3852 9.00752C98.5829 9.51568 98.3978 10.0169 97.8296 10.5113C97.5703 12.3567 97.0762 14.1111 96.348 15.7744C96.101 18.2807 96.101 20.787 96.348 23.2932C97.7147 24.4928 99.1345 25.6206 100.608 26.6767C101.517 25.3406 101.949 23.8368 101.904 22.1654C102.151 21.9148 102.398 21.6642 102.645 21.4135C102.828 22.1552 102.89 22.907 102.83 23.6692C104.064 23.6692 105.299 23.6692 106.534 23.6692C106.68 22.7126 106.433 21.8981 105.793 21.2256C106.492 21.1644 107.047 21.4777 107.46 22.1654C107.558 23.8404 107.866 25.4695 108.386 27.0526C109.759 25.6579 111.241 24.4047 112.83 23.2932C113.261 21.1739 113.323 19.0436 113.016 16.9023C112.275 14.3955 111.657 11.8893 111.164 9.38346C113.708 12.9405 114.881 16.9505 114.682 21.4135C114.621 22.5414 114.559 23.6692 114.497 24.797C113.194 25.4874 111.898 26.1766 110.608 26.8647C112.552 26.5625 114.528 26.3745 116.534 26.3008C117.041 19.2247 115.682 12.5831 112.46 6.37594C112.583 6.25064 112.707 6.1253 112.83 6C115.978 10.2408 118.016 15.0027 118.942 20.2857C119.127 23.0398 119.189 25.7967 119.127 28.5564C116.161 28.4938 113.198 28.5565 110.238 28.7444C113.665 30.461 117.246 31.7768 120.979 32.6917C121.236 39.8707 119.137 46.1989 114.682 51.6767C114.374 51.9353 114.128 51.8726 113.942 51.4887C116.168 48.3474 117.526 44.8387 118.016 40.9624Z" fill="white"/>
<path fill-rule="evenodd" clip-rule="evenodd" d="M95.0516 9.7594C94.8453 11.513 94.3516 13.1421 93.5701 14.6466C93.7764 12.893 94.2701 11.2639 95.0516 9.7594Z" fill="#AAACAB"/>
<path fill-rule="evenodd" clip-rule="evenodd" d="M90.9773 18.0301C90.4873 21.5182 90.2403 25.0269 90.2366 28.5564C93.2023 28.4938 96.1654 28.5565 99.1259 28.7444C98.7455 28.9373 98.3752 29.1253 98.0148 29.3083C95.3672 28.9355 92.6511 28.8102 89.8662 28.9323C89.6506 25.1819 90.021 21.5478 90.9773 18.0301Z" fill="#8D908F"/>
<path fill-rule="evenodd" clip-rule="evenodd" d="M118.386 35.3233C118.631 36.0015 118.755 36.7534 118.757 37.5789C118.815 38.8248 118.568 39.9526 118.016 40.9624C118.295 39.0966 118.419 37.2169 118.386 35.3233Z" fill="#808583"/>
</svg>
